<?xml version="1.0" standalone="no"?>
<!DOCTYPE svg PUBLIC "-//W3C//DTD SVG 20010904//EN"
 "http://www.w3.org/TR/2001/REC-SVG-20010904/DTD/svg10.dtd">
<svg version="1.0" xmlns="http://www.w3.org/2000/svg"
 width="700.000000pt" height="700.000000pt" viewBox="0 0 700.000000 700.000000"
 preserveAspectRatio="xMidYMid meet">
<metadata>
Created by potrace 1.11, written by Peter Selinger 2001-2013
</metadata>
<g transform="translate(0.000000,700.000000) scale(0.100000,-0.100000)"
fill="#000000" stroke="none">
<path d="M3555 6776 c-40 -19 -43 -39 -51 -286 -4 -113 -11 -213 -16 -223 -20
-38 -85 -57 -203 -57 -187 0 -439 44 -975 170 -439 104 -555 123 -745 123
-156 0 -262 -14 -405 -54 -86 -24 -170 -58 -170 -70 0 -4 35 -15 78 -24 224
-48 398 -98 465 -132 19 -10 26 -19 23 -31 -9 -27 61 -155 162 -295 51 -70
105 -150 120 -177 l27 -48 -20 -22 c-25 -28 -183 -122 -395 -235 -197 -105
-276 -152 -435 -257 -369 -246 -687 -519 -690 -594 -1 -13 -9 -32 -19 -43 -19
-21 -28 -17 152 -67 185 -51 279 -88 350 -136 37 -25 42 -34 42 -66 0 -61 -46
-186 -137 -372 -176 -360 -217 -455 -292 -680 -87 -260 -121 -427 -121 -599 0
-112 0 -113 23 -108 12 3 47 9 77 12 30 4 131 31 223 61 93 30 188 57 211 60
38 6 45 3 60 -17 28 -41 63 -167 126 -459 118 -549 171 -728 302 -1010 46 -98
116 -218 151 -257 11 -13 29 -23 39 -23 32 0 116 89 233 245 138 185 155 201
187 184 54 -28 194 -146 444 -373 212 -193 453 -385 615 -489 131 -84 408
-229 457 -239 8 -2 24 22 39 57 25 57 26 70 32 301 5 182 9 245 20 257 17 22
47 21 201 -2 69 -11 188 -25 265 -31 202 -16 310 -27 480 -49 83 -11 188 -22
235 -26 l85 -6 -30 26 -30 27 224 -5 c282 -6 1029 9 1141 23 110 14 204 47
313 108 l88 49 -168 6 c-243 9 -489 58 -768 152 -226 76 -316 124 -356 189
-57 93 9 153 353 319 239 115 339 171 524 293 265 174 506 388 568 502 47 89
29 105 -224 197 -134 49 -257 110 -274 137 -19 31 11 106 168 423 193 388 250
525 320 765 54 183 68 279 64 430 -3 118 -5 133 -23 147 -30 22 -89 12 -283
-51 -165 -54 -235 -68 -261 -52 -41 26 -83 175 -147 526 -25 140 -55 293 -66
340 -52 219 -134 446 -228 630 -45 86 -184 310 -193 310 -2 0 -59 -72 -126
-159 -117 -154 -247 -291 -275 -291 -31 0 -189 124 -416 325 -352 313 -672
544 -924 669 -121 60 -175 73 -221 52z"/>
</g>
</svg>
